<mxfile host="app.diagrams.net" agent="Mozilla/5.0 (Windows NT 10.0; Win64; x64) AppleWebKit/537.36 (KHTML, like Gecko) Chrome/129.0.0.0 Safari/537.36 Edg/129.0.0.0" version="24.7.16">
  <diagram name="Seite-1" id="dqsLzKi4FgeO7Q9_Gg5U">
    <mxGraphModel dx="3012" dy="744" grid="1" gridSize="10" guides="1" tooltips="1" connect="1" arrows="1" fold="1" page="1" pageScale="1" pageWidth="827" pageHeight="1169" math="0" shadow="0">
      <root>
        <mxCell id="0" />
        <mxCell id="1" parent="0" />
        <mxCell id="J-38YoUWlMMychKlFMu8-188" value="" style="group;fillColor=#e1d5e7;strokeColor=#9673a6;container=0;" vertex="1" connectable="0" parent="1">
          <mxGeometry x="-580" y="206" width="320" height="341" as="geometry" />
        </mxCell>
        <mxCell id="J-38YoUWlMMychKlFMu8-199" value="&lt;font style=&quot;font-size: 14px;&quot;&gt;&lt;b&gt;Redis Cluster&lt;/b&gt;&lt;/font&gt;" style="rounded=0;whiteSpace=wrap;html=1;labelBackgroundColor=none;fontColor=default;fillColor=none;verticalAlign=top;" vertex="1" parent="1">
          <mxGeometry x="-580" y="206" width="320" height="341" as="geometry" />
        </mxCell>
        <mxCell id="J-38YoUWlMMychKlFMu8-166" value="RabbitMQ" style="rounded=0;whiteSpace=wrap;html=1;fillColor=#ffe6cc;verticalAlign=top;strokeColor=#d79b00;" vertex="1" parent="1">
          <mxGeometry x="-1050" y="276.5" width="100" height="200" as="geometry" />
        </mxCell>
        <mxCell id="J-38YoUWlMMychKlFMu8-59" style="rounded=0;orthogonalLoop=1;jettySize=auto;html=1;strokeColor=default;entryX=0;entryY=0.5;entryDx=0;entryDy=0;exitX=1;exitY=0.5;exitDx=0;exitDy=0;" edge="1" parent="1" source="2" target="J-38YoUWlMMychKlFMu8-57">
          <mxGeometry relative="1" as="geometry" />
        </mxCell>
        <mxCell id="J-38YoUWlMMychKlFMu8-64" style="rounded=0;orthogonalLoop=1;jettySize=auto;html=1;entryX=0;entryY=0.5;entryDx=0;entryDy=0;exitX=1;exitY=0.5;exitDx=0;exitDy=0;" edge="1" parent="1" source="2" target="J-38YoUWlMMychKlFMu8-61">
          <mxGeometry relative="1" as="geometry" />
        </mxCell>
        <mxCell id="J-38YoUWlMMychKlFMu8-65" style="rounded=0;orthogonalLoop=1;jettySize=auto;html=1;entryX=0;entryY=0.5;entryDx=0;entryDy=0;exitX=1;exitY=0.5;exitDx=0;exitDy=0;" edge="1" parent="1" source="2" target="J-38YoUWlMMychKlFMu8-62">
          <mxGeometry relative="1" as="geometry" />
        </mxCell>
        <mxCell id="2" value="DCÂ Gateway" style="whiteSpace=wrap;strokeWidth=2;labelBackgroundColor=none;labelBorderColor=none;horizontal=1;fontSize=13;fillColor=#dae8fc;strokeColor=#6c8ebf;" parent="1" vertex="1">
          <mxGeometry x="-1590" y="282.5" width="142" height="49" as="geometry" />
        </mxCell>
        <mxCell id="J-38YoUWlMMychKlFMu8-168" style="edgeStyle=orthogonalEdgeStyle;rounded=0;orthogonalLoop=1;jettySize=auto;html=1;entryX=0;entryY=0.5;entryDx=0;entryDy=0;strokeColor=#00FF00;" edge="1" parent="1" source="J-38YoUWlMMychKlFMu8-57" target="J-38YoUWlMMychKlFMu8-163">
          <mxGeometry relative="1" as="geometry">
            <Array as="points">
              <mxPoint x="-1160" y="216.5" />
              <mxPoint x="-1160" y="326.5" />
            </Array>
          </mxGeometry>
        </mxCell>
        <mxCell id="J-38YoUWlMMychKlFMu8-169" style="edgeStyle=orthogonalEdgeStyle;rounded=0;orthogonalLoop=1;jettySize=auto;html=1;entryX=0.5;entryY=0;entryDx=0;entryDy=0;dashed=1;" edge="1" parent="1">
          <mxGeometry relative="1" as="geometry">
            <mxPoint x="-1190" y="232.5" as="sourcePoint" />
            <mxPoint x="-1000" y="282.5" as="targetPoint" />
          </mxGeometry>
        </mxCell>
        <mxCell id="J-38YoUWlMMychKlFMu8-57" value="Worker #0 (Shards 0-3)" style="rounded=0;whiteSpace=wrap;html=1;fillColor=#d5e8d4;strokeColor=#82b366;" vertex="1" parent="1">
          <mxGeometry x="-1350" y="196.5" width="160" height="60" as="geometry" />
        </mxCell>
        <mxCell id="J-38YoUWlMMychKlFMu8-172" style="edgeStyle=orthogonalEdgeStyle;rounded=0;orthogonalLoop=1;jettySize=auto;html=1;entryX=0;entryY=0.5;entryDx=0;entryDy=0;strokeColor=#00FF00;" edge="1" parent="1" source="J-38YoUWlMMychKlFMu8-61" target="J-38YoUWlMMychKlFMu8-164">
          <mxGeometry relative="1" as="geometry">
            <Array as="points">
              <mxPoint x="-1160" y="436.5" />
              <mxPoint x="-1160" y="446.5" />
            </Array>
          </mxGeometry>
        </mxCell>
        <mxCell id="J-38YoUWlMMychKlFMu8-174" style="edgeStyle=orthogonalEdgeStyle;rounded=0;orthogonalLoop=1;jettySize=auto;html=1;entryX=0.5;entryY=0;entryDx=0;entryDy=0;dashed=1;" edge="1" parent="1" source="J-38YoUWlMMychKlFMu8-61" target="J-38YoUWlMMychKlFMu8-166">
          <mxGeometry relative="1" as="geometry">
            <Array as="points">
              <mxPoint x="-1120" y="416.5" />
              <mxPoint x="-1120" y="256.5" />
              <mxPoint x="-1000" y="256.5" />
            </Array>
          </mxGeometry>
        </mxCell>
        <mxCell id="J-38YoUWlMMychKlFMu8-61" value="Worker #2 (Shards 8-11)" style="rounded=0;whiteSpace=wrap;html=1;fillColor=#d5e8d4;strokeColor=#82b366;" vertex="1" parent="1">
          <mxGeometry x="-1350" y="396.5" width="160" height="60" as="geometry" />
        </mxCell>
        <mxCell id="J-38YoUWlMMychKlFMu8-173" style="edgeStyle=orthogonalEdgeStyle;rounded=0;orthogonalLoop=1;jettySize=auto;html=1;entryX=0;entryY=0.5;entryDx=0;entryDy=0;strokeColor=#00FF00;" edge="1" parent="1" source="J-38YoUWlMMychKlFMu8-62" target="J-38YoUWlMMychKlFMu8-163">
          <mxGeometry relative="1" as="geometry">
            <Array as="points">
              <mxPoint x="-1140" y="536.5" />
              <mxPoint x="-1140" y="326.5" />
            </Array>
          </mxGeometry>
        </mxCell>
        <mxCell id="J-38YoUWlMMychKlFMu8-176" style="edgeStyle=orthogonalEdgeStyle;rounded=0;orthogonalLoop=1;jettySize=auto;html=1;entryX=0.5;entryY=0;entryDx=0;entryDy=0;dashed=1;" edge="1" parent="1" source="J-38YoUWlMMychKlFMu8-62" target="J-38YoUWlMMychKlFMu8-166">
          <mxGeometry relative="1" as="geometry">
            <Array as="points">
              <mxPoint x="-1110" y="516.5" />
              <mxPoint x="-1110" y="266.5" />
              <mxPoint x="-1000" y="266.5" />
            </Array>
          </mxGeometry>
        </mxCell>
        <mxCell id="J-38YoUWlMMychKlFMu8-62" value="Worker #3&lt;span style=&quot;background-color: initial;&quot;&gt;&amp;nbsp;(Shards 12-15)&lt;/span&gt;" style="rounded=0;whiteSpace=wrap;html=1;fillColor=#d5e8d4;strokeColor=#82b366;" vertex="1" parent="1">
          <mxGeometry x="-1350" y="496.5" width="160" height="60" as="geometry" />
        </mxCell>
        <mxCell id="J-38YoUWlMMychKlFMu8-63" value="" style="curved=1;startArrow=none;endArrow=block;exitX=1;exitY=0.5;entryX=0;entryY=0.5;entryDx=0;entryDy=0;exitDx=0;exitDy=0;" edge="1" parent="1" source="2" target="J-38YoUWlMMychKlFMu8-60">
          <mxGeometry relative="1" as="geometry">
            <Array as="points" />
            <mxPoint x="-1093" y="384.5" as="sourcePoint" />
            <mxPoint x="-566" y="183.5" as="targetPoint" />
          </mxGeometry>
        </mxCell>
        <mxCell id="J-38YoUWlMMychKlFMu8-170" style="edgeStyle=orthogonalEdgeStyle;rounded=0;orthogonalLoop=1;jettySize=auto;html=1;entryX=0;entryY=0.5;entryDx=0;entryDy=0;strokeColor=#00FF00;" edge="1" parent="1" source="J-38YoUWlMMychKlFMu8-60" target="J-38YoUWlMMychKlFMu8-162">
          <mxGeometry relative="1" as="geometry">
            <Array as="points">
              <mxPoint x="-1160" y="336.5" />
              <mxPoint x="-1160" y="386.5" />
            </Array>
          </mxGeometry>
        </mxCell>
        <mxCell id="J-38YoUWlMMychKlFMu8-171" style="edgeStyle=orthogonalEdgeStyle;rounded=0;orthogonalLoop=1;jettySize=auto;html=1;entryX=0.5;entryY=0;entryDx=0;entryDy=0;dashed=1;" edge="1" parent="1" source="J-38YoUWlMMychKlFMu8-60" target="J-38YoUWlMMychKlFMu8-166">
          <mxGeometry relative="1" as="geometry">
            <Array as="points">
              <mxPoint x="-1130" y="316.5" />
              <mxPoint x="-1130" y="246.5" />
              <mxPoint x="-1000" y="246.5" />
            </Array>
          </mxGeometry>
        </mxCell>
        <mxCell id="J-38YoUWlMMychKlFMu8-60" value="Worker #1 (Shards 4-7)" style="rounded=0;whiteSpace=wrap;html=1;fillColor=#d5e8d4;strokeColor=#82b366;" vertex="1" parent="1">
          <mxGeometry x="-1350" y="296.5" width="160" height="60" as="geometry" />
        </mxCell>
        <mxCell id="J-38YoUWlMMychKlFMu8-108" style="edgeStyle=orthogonalEdgeStyle;rounded=0;orthogonalLoop=1;jettySize=auto;html=1;" edge="1" parent="1" source="J-38YoUWlMMychKlFMu8-68" target="J-38YoUWlMMychKlFMu8-105">
          <mxGeometry relative="1" as="geometry">
            <Array as="points">
              <mxPoint x="170" y="371.5" />
              <mxPoint x="170" y="511.5" />
              <mxPoint x="790" y="511.5" />
            </Array>
          </mxGeometry>
        </mxCell>
        <mxCell id="J-38YoUWlMMychKlFMu8-109" value="AMQP: Rest Queue, evtl. with RK" style="edgeLabel;html=1;align=center;verticalAlign=middle;resizable=0;points=[];" vertex="1" connectable="0" parent="J-38YoUWlMMychKlFMu8-108">
          <mxGeometry x="0.147" y="1" relative="1" as="geometry">
            <mxPoint as="offset" />
          </mxGeometry>
        </mxCell>
        <mxCell id="J-38YoUWlMMychKlFMu8-110" style="edgeStyle=orthogonalEdgeStyle;rounded=0;orthogonalLoop=1;jettySize=auto;html=1;entryX=0;entryY=0.5;entryDx=0;entryDy=0;" edge="1" parent="1" source="J-38YoUWlMMychKlFMu8-68" target="J-38YoUWlMMychKlFMu8-99">
          <mxGeometry relative="1" as="geometry" />
        </mxCell>
        <mxCell id="J-38YoUWlMMychKlFMu8-68" value="Bot #0" style="rounded=0;whiteSpace=wrap;html=1;fillColor=#ffe6cc;strokeColor=#d79b00;" vertex="1" parent="1">
          <mxGeometry y="341.5" width="120" height="60" as="geometry" />
        </mxCell>
        <mxCell id="J-38YoUWlMMychKlFMu8-82" value="MongoDB Database" style="rounded=0;whiteSpace=wrap;html=1;fillColor=#d5e8d4;strokeColor=#82b366;fontStyle=1" vertex="1" parent="1">
          <mxGeometry x="230" y="201.5" width="160" height="60" as="geometry" />
        </mxCell>
        <mxCell id="J-38YoUWlMMychKlFMu8-96" value="" style="group;fillColor=#e1d5e7;strokeColor=#9673a6;" vertex="1" connectable="0" parent="1">
          <mxGeometry x="530" y="115" width="320" height="341" as="geometry" />
        </mxCell>
        <mxCell id="J-38YoUWlMMychKlFMu8-84" value="Redis #0" style="rounded=0;whiteSpace=wrap;html=1;fillColor=#fff2cc;strokeColor=#d6b656;" vertex="1" parent="J-38YoUWlMMychKlFMu8-96">
          <mxGeometry x="20" y="60" width="120" height="60" as="geometry" />
        </mxCell>
        <mxCell id="J-38YoUWlMMychKlFMu8-86" value="Redis #1" style="rounded=0;whiteSpace=wrap;html=1;fillColor=#fff2cc;strokeColor=#d6b656;" vertex="1" parent="J-38YoUWlMMychKlFMu8-96">
          <mxGeometry x="20" y="130" width="120" height="60" as="geometry" />
        </mxCell>
        <mxCell id="J-38YoUWlMMychKlFMu8-87" value="Redis #2" style="rounded=0;whiteSpace=wrap;html=1;fillColor=#fff2cc;strokeColor=#d6b656;" vertex="1" parent="J-38YoUWlMMychKlFMu8-96">
          <mxGeometry x="20" y="200" width="120" height="60" as="geometry" />
        </mxCell>
        <mxCell id="J-38YoUWlMMychKlFMu8-88" value="Redis #3" style="rounded=0;whiteSpace=wrap;html=1;fillColor=#fff2cc;strokeColor=#d6b656;" vertex="1" parent="J-38YoUWlMMychKlFMu8-96">
          <mxGeometry x="20" y="270" width="120" height="60" as="geometry" />
        </mxCell>
        <mxCell id="J-38YoUWlMMychKlFMu8-90" value="Master Nodes" style="text;html=1;align=center;verticalAlign=middle;whiteSpace=wrap;rounded=0;" vertex="1" parent="J-38YoUWlMMychKlFMu8-96">
          <mxGeometry x="20" y="30" width="120" height="30" as="geometry" />
        </mxCell>
        <mxCell id="J-38YoUWlMMychKlFMu8-91" value="Redis #7" style="rounded=0;whiteSpace=wrap;html=1;fillColor=#fff2cc;strokeColor=#d6b656;" vertex="1" parent="J-38YoUWlMMychKlFMu8-96">
          <mxGeometry x="180" y="270" width="120" height="60" as="geometry" />
        </mxCell>
        <mxCell id="J-38YoUWlMMychKlFMu8-92" value="Redis #6" style="rounded=0;whiteSpace=wrap;html=1;fillColor=#fff2cc;strokeColor=#d6b656;" vertex="1" parent="J-38YoUWlMMychKlFMu8-96">
          <mxGeometry x="180" y="200" width="120" height="60" as="geometry" />
        </mxCell>
        <mxCell id="J-38YoUWlMMychKlFMu8-93" value="Redis #5" style="rounded=0;whiteSpace=wrap;html=1;fillColor=#fff2cc;strokeColor=#d6b656;" vertex="1" parent="J-38YoUWlMMychKlFMu8-96">
          <mxGeometry x="180" y="130" width="120" height="60" as="geometry" />
        </mxCell>
        <mxCell id="J-38YoUWlMMychKlFMu8-94" value="Redis #4" style="rounded=0;whiteSpace=wrap;html=1;fillColor=#fff2cc;strokeColor=#d6b656;" vertex="1" parent="J-38YoUWlMMychKlFMu8-96">
          <mxGeometry x="180" y="60" width="120" height="60" as="geometry" />
        </mxCell>
        <mxCell id="J-38YoUWlMMychKlFMu8-95" value="Slave Nodes" style="text;html=1;align=center;verticalAlign=middle;whiteSpace=wrap;rounded=0;" vertex="1" parent="J-38YoUWlMMychKlFMu8-96">
          <mxGeometry x="180" y="30" width="120" height="30" as="geometry" />
        </mxCell>
        <mxCell id="J-38YoUWlMMychKlFMu8-85" value="&lt;font style=&quot;font-size: 14px;&quot;&gt;&lt;b&gt;Redis Cluster&lt;/b&gt;&lt;/font&gt;" style="rounded=0;whiteSpace=wrap;html=1;labelBackgroundColor=none;fontColor=default;fillColor=none;verticalAlign=top;" vertex="1" parent="J-38YoUWlMMychKlFMu8-96">
          <mxGeometry width="320" height="341" as="geometry" />
        </mxCell>
        <mxCell id="J-38YoUWlMMychKlFMu8-103" style="edgeStyle=orthogonalEdgeStyle;rounded=0;orthogonalLoop=1;jettySize=auto;html=1;entryX=0.5;entryY=1;entryDx=0;entryDy=0;exitX=0.575;exitY=-0.013;exitDx=0;exitDy=0;exitPerimeter=0;" edge="1" parent="1" source="J-38YoUWlMMychKlFMu8-99" target="J-38YoUWlMMychKlFMu8-82">
          <mxGeometry relative="1" as="geometry">
            <Array as="points">
              <mxPoint x="309" y="371.5" />
              <mxPoint x="310" y="371.5" />
            </Array>
          </mxGeometry>
        </mxCell>
        <mxCell id="J-38YoUWlMMychKlFMu8-106" value="Settings, Configs, Logs" style="edgeLabel;html=1;align=center;verticalAlign=middle;resizable=0;points=[];" vertex="1" connectable="0" parent="J-38YoUWlMMychKlFMu8-103">
          <mxGeometry x="-0.2145" y="1" relative="1" as="geometry">
            <mxPoint x="1" y="-42" as="offset" />
          </mxGeometry>
        </mxCell>
        <mxCell id="J-38YoUWlMMychKlFMu8-137" style="edgeStyle=orthogonalEdgeStyle;rounded=0;orthogonalLoop=1;jettySize=auto;html=1;" edge="1" parent="1" source="J-38YoUWlMMychKlFMu8-105">
          <mxGeometry relative="1" as="geometry">
            <mxPoint x="70" y="401.5" as="targetPoint" />
            <Array as="points">
              <mxPoint x="710" y="561.5" />
              <mxPoint x="710" y="551.5" />
              <mxPoint x="70" y="551.5" />
            </Array>
          </mxGeometry>
        </mxCell>
        <mxCell id="J-38YoUWlMMychKlFMu8-138" value="AMQP: Loaded Messaegs RK#0" style="edgeLabel;html=1;align=center;verticalAlign=middle;resizable=0;points=[];" vertex="1" connectable="0" parent="J-38YoUWlMMychKlFMu8-137">
          <mxGeometry x="-0.2747" y="-1" relative="1" as="geometry">
            <mxPoint as="offset" />
          </mxGeometry>
        </mxCell>
        <mxCell id="J-38YoUWlMMychKlFMu8-139" style="edgeStyle=orthogonalEdgeStyle;rounded=0;orthogonalLoop=1;jettySize=auto;html=1;exitX=0;exitY=0.5;exitDx=0;exitDy=0;" edge="1" parent="1" source="J-38YoUWlMMychKlFMu8-105">
          <mxGeometry relative="1" as="geometry">
            <mxPoint x="50" y="401.5" as="targetPoint" />
            <Array as="points">
              <mxPoint x="710" y="561.5" />
              <mxPoint x="710" y="571.5" />
              <mxPoint x="50" y="571.5" />
            </Array>
          </mxGeometry>
        </mxCell>
        <mxCell id="J-38YoUWlMMychKlFMu8-140" value="AMQP: Reply to" style="edgeLabel;html=1;align=center;verticalAlign=middle;resizable=0;points=[];" vertex="1" connectable="0" parent="J-38YoUWlMMychKlFMu8-139">
          <mxGeometry x="-0.4023" y="-2" relative="1" as="geometry">
            <mxPoint as="offset" />
          </mxGeometry>
        </mxCell>
        <mxCell id="J-38YoUWlMMychKlFMu8-105" value="Nirn Rest Proxy" style="rounded=0;whiteSpace=wrap;html=1;fontStyle=1;fontSize=14;fillColor=#dae8fc;strokeColor=#6c8ebf;" vertex="1" parent="1">
          <mxGeometry x="730" y="531.5" width="120" height="60" as="geometry" />
        </mxCell>
        <mxCell id="J-38YoUWlMMychKlFMu8-118" value="" style="group" vertex="1" connectable="0" parent="1">
          <mxGeometry x="240" y="341.5" width="120" height="140" as="geometry" />
        </mxCell>
        <mxCell id="J-38YoUWlMMychKlFMu8-99" value="Data Handler" style="rounded=0;whiteSpace=wrap;html=1;fillColor=#f8cecc;strokeColor=#b85450;" vertex="1" parent="J-38YoUWlMMychKlFMu8-118">
          <mxGeometry width="120" height="60" as="geometry" />
        </mxCell>
        <mxCell id="J-38YoUWlMMychKlFMu8-100" value="In-Memory" style="rounded=0;whiteSpace=wrap;html=1;" vertex="1" parent="J-38YoUWlMMychKlFMu8-118">
          <mxGeometry y="80" width="120" height="60" as="geometry" />
        </mxCell>
        <mxCell id="J-38YoUWlMMychKlFMu8-104" style="edgeStyle=orthogonalEdgeStyle;rounded=0;orthogonalLoop=1;jettySize=auto;html=1;" edge="1" parent="J-38YoUWlMMychKlFMu8-118" source="J-38YoUWlMMychKlFMu8-99" target="J-38YoUWlMMychKlFMu8-100">
          <mxGeometry relative="1" as="geometry" />
        </mxCell>
        <mxCell id="J-38YoUWlMMychKlFMu8-184" style="edgeStyle=orthogonalEdgeStyle;rounded=0;orthogonalLoop=1;jettySize=auto;html=1;entryX=0;entryY=0.5;entryDx=0;entryDy=0;strokeColor=#00FF00;" edge="1" parent="1" source="J-38YoUWlMMychKlFMu8-162" target="J-38YoUWlMMychKlFMu8-178">
          <mxGeometry relative="1" as="geometry">
            <Array as="points">
              <mxPoint x="-880" y="386.5" />
              <mxPoint x="-880" y="326.5" />
            </Array>
          </mxGeometry>
        </mxCell>
        <mxCell id="J-38YoUWlMMychKlFMu8-162" value="Node #1" style="rounded=0;whiteSpace=wrap;html=1;" vertex="1" parent="1">
          <mxGeometry x="-1040" y="366.5" width="80" height="40" as="geometry" />
        </mxCell>
        <mxCell id="J-38YoUWlMMychKlFMu8-182" style="edgeStyle=orthogonalEdgeStyle;rounded=0;orthogonalLoop=1;jettySize=auto;html=1;entryX=0;entryY=0.5;entryDx=0;entryDy=0;strokeColor=#00FF00;" edge="1" parent="1" source="J-38YoUWlMMychKlFMu8-163" target="J-38YoUWlMMychKlFMu8-177">
          <mxGeometry relative="1" as="geometry">
            <Array as="points">
              <mxPoint x="-900" y="326.5" />
              <mxPoint x="-900" y="226.5" />
            </Array>
          </mxGeometry>
        </mxCell>
        <mxCell id="J-38YoUWlMMychKlFMu8-163" value="Node #0" style="rounded=0;whiteSpace=wrap;html=1;" vertex="1" parent="1">
          <mxGeometry x="-1040" y="306.5" width="80" height="40" as="geometry" />
        </mxCell>
        <mxCell id="J-38YoUWlMMychKlFMu8-164" value="Node #2" style="rounded=0;whiteSpace=wrap;html=1;" vertex="1" parent="1">
          <mxGeometry x="-1040" y="426.5" width="80" height="40" as="geometry" />
        </mxCell>
        <mxCell id="J-38YoUWlMMychKlFMu8-204" style="edgeStyle=orthogonalEdgeStyle;rounded=0;orthogonalLoop=1;jettySize=auto;html=1;entryX=0;entryY=0.5;entryDx=0;entryDy=0;fontColor=#00FF00;strokeColor=#00FF00;" edge="1" parent="1" source="J-38YoUWlMMychKlFMu8-177" target="J-38YoUWlMMychKlFMu8-189">
          <mxGeometry relative="1" as="geometry" />
        </mxCell>
        <mxCell id="J-38YoUWlMMychKlFMu8-177" value="Bot #0" style="rounded=0;whiteSpace=wrap;html=1;" vertex="1" parent="1">
          <mxGeometry x="-820" y="196.5" width="120" height="60" as="geometry" />
        </mxCell>
        <mxCell id="J-38YoUWlMMychKlFMu8-203" style="edgeStyle=orthogonalEdgeStyle;rounded=0;orthogonalLoop=1;jettySize=auto;html=1;entryX=0;entryY=0.5;entryDx=0;entryDy=0;fontColor=#00FF00;strokeColor=#00FF00;" edge="1" parent="1" source="J-38YoUWlMMychKlFMu8-178" target="J-38YoUWlMMychKlFMu8-190">
          <mxGeometry relative="1" as="geometry" />
        </mxCell>
        <mxCell id="J-38YoUWlMMychKlFMu8-178" value="Bot #1" style="rounded=0;whiteSpace=wrap;html=1;" vertex="1" parent="1">
          <mxGeometry x="-820" y="296.5" width="120" height="60" as="geometry" />
        </mxCell>
        <mxCell id="J-38YoUWlMMychKlFMu8-202" style="edgeStyle=orthogonalEdgeStyle;rounded=0;orthogonalLoop=1;jettySize=auto;html=1;entryX=0;entryY=0.5;entryDx=0;entryDy=0;fontColor=#00FF00;strokeColor=#00FF00;" edge="1" parent="1" source="J-38YoUWlMMychKlFMu8-179" target="J-38YoUWlMMychKlFMu8-191">
          <mxGeometry relative="1" as="geometry" />
        </mxCell>
        <mxCell id="J-38YoUWlMMychKlFMu8-179" value="Bot #2" style="rounded=0;whiteSpace=wrap;html=1;" vertex="1" parent="1">
          <mxGeometry x="-820" y="396.5" width="120" height="60" as="geometry" />
        </mxCell>
        <mxCell id="J-38YoUWlMMychKlFMu8-201" style="edgeStyle=orthogonalEdgeStyle;rounded=0;orthogonalLoop=1;jettySize=auto;html=1;entryX=0;entryY=0.5;entryDx=0;entryDy=0;fontColor=#00FF00;strokeColor=#00FF00;" edge="1" parent="1" source="J-38YoUWlMMychKlFMu8-180" target="J-38YoUWlMMychKlFMu8-192">
          <mxGeometry relative="1" as="geometry">
            <mxPoint x="-610" y="526.5" as="targetPoint" />
          </mxGeometry>
        </mxCell>
        <mxCell id="J-38YoUWlMMychKlFMu8-180" value="Bot #3" style="rounded=0;whiteSpace=wrap;html=1;" vertex="1" parent="1">
          <mxGeometry x="-820" y="496.5" width="120" height="60" as="geometry" />
        </mxCell>
        <mxCell id="J-38YoUWlMMychKlFMu8-185" style="edgeStyle=orthogonalEdgeStyle;rounded=0;orthogonalLoop=1;jettySize=auto;html=1;entryX=0.031;entryY=0.533;entryDx=0;entryDy=0;entryPerimeter=0;strokeColor=#00FF00;" edge="1" parent="1" source="J-38YoUWlMMychKlFMu8-164" target="J-38YoUWlMMychKlFMu8-179">
          <mxGeometry relative="1" as="geometry">
            <Array as="points">
              <mxPoint x="-880" y="446.5" />
              <mxPoint x="-880" y="428.5" />
            </Array>
          </mxGeometry>
        </mxCell>
        <mxCell id="J-38YoUWlMMychKlFMu8-186" style="edgeStyle=orthogonalEdgeStyle;rounded=0;orthogonalLoop=1;jettySize=auto;html=1;entryX=-0.006;entryY=0.58;entryDx=0;entryDy=0;entryPerimeter=0;strokeColor=#00FF00;" edge="1" parent="1" source="J-38YoUWlMMychKlFMu8-163" target="J-38YoUWlMMychKlFMu8-180">
          <mxGeometry relative="1" as="geometry">
            <Array as="points">
              <mxPoint x="-900" y="326.5" />
              <mxPoint x="-900" y="531.5" />
            </Array>
          </mxGeometry>
        </mxCell>
        <mxCell id="J-38YoUWlMMychKlFMu8-187" value="Clustered Bot Process + Gateway" style="text;html=1;align=center;verticalAlign=middle;resizable=0;points=[];autosize=1;strokeColor=none;fillColor=none;fontStyle=1;fontSize=19;" vertex="1" parent="1">
          <mxGeometry x="-1050" y="121.5" width="310" height="40" as="geometry" />
        </mxCell>
        <mxCell id="J-38YoUWlMMychKlFMu8-189" value="Redis #0" style="rounded=0;whiteSpace=wrap;html=1;fillColor=#fff2cc;strokeColor=#d6b656;" vertex="1" parent="1">
          <mxGeometry x="-560" y="266" width="120" height="60" as="geometry" />
        </mxCell>
        <mxCell id="J-38YoUWlMMychKlFMu8-190" value="Redis #1" style="rounded=0;whiteSpace=wrap;html=1;fillColor=#fff2cc;strokeColor=#d6b656;" vertex="1" parent="1">
          <mxGeometry x="-560" y="336" width="120" height="60" as="geometry" />
        </mxCell>
        <mxCell id="J-38YoUWlMMychKlFMu8-191" value="Redis #2" style="rounded=0;whiteSpace=wrap;html=1;fillColor=#fff2cc;strokeColor=#d6b656;" vertex="1" parent="1">
          <mxGeometry x="-560" y="406" width="120" height="60" as="geometry" />
        </mxCell>
        <mxCell id="J-38YoUWlMMychKlFMu8-192" value="Redis #3" style="rounded=0;whiteSpace=wrap;html=1;fillColor=#fff2cc;strokeColor=#d6b656;" vertex="1" parent="1">
          <mxGeometry x="-560" y="476" width="120" height="60" as="geometry" />
        </mxCell>
        <mxCell id="J-38YoUWlMMychKlFMu8-193" value="Master Nodes" style="text;html=1;align=center;verticalAlign=middle;whiteSpace=wrap;rounded=0;" vertex="1" parent="1">
          <mxGeometry x="-560" y="236" width="120" height="30" as="geometry" />
        </mxCell>
        <mxCell id="J-38YoUWlMMychKlFMu8-194" value="Redis #7" style="rounded=0;whiteSpace=wrap;html=1;fillColor=#fff2cc;strokeColor=#d6b656;" vertex="1" parent="1">
          <mxGeometry x="-400" y="476" width="120" height="60" as="geometry" />
        </mxCell>
        <mxCell id="J-38YoUWlMMychKlFMu8-195" value="Redis #6" style="rounded=0;whiteSpace=wrap;html=1;fillColor=#fff2cc;strokeColor=#d6b656;" vertex="1" parent="1">
          <mxGeometry x="-400" y="406" width="120" height="60" as="geometry" />
        </mxCell>
        <mxCell id="J-38YoUWlMMychKlFMu8-196" value="Redis #5" style="rounded=0;whiteSpace=wrap;html=1;fillColor=#fff2cc;strokeColor=#d6b656;" vertex="1" parent="1">
          <mxGeometry x="-400" y="336" width="120" height="60" as="geometry" />
        </mxCell>
        <mxCell id="J-38YoUWlMMychKlFMu8-197" value="Redis #4" style="rounded=0;whiteSpace=wrap;html=1;fillColor=#fff2cc;strokeColor=#d6b656;" vertex="1" parent="1">
          <mxGeometry x="-400" y="266" width="120" height="60" as="geometry" />
        </mxCell>
        <mxCell id="J-38YoUWlMMychKlFMu8-198" value="Slave Nodes" style="text;html=1;align=center;verticalAlign=middle;whiteSpace=wrap;rounded=0;" vertex="1" parent="1">
          <mxGeometry x="-400" y="236" width="120" height="30" as="geometry" />
        </mxCell>
        <mxCell id="J-38YoUWlMMychKlFMu8-205" style="edgeStyle=orthogonalEdgeStyle;rounded=0;orthogonalLoop=1;jettySize=auto;html=1;entryX=0;entryY=0.5;entryDx=0;entryDy=0;" edge="1" parent="1" source="J-38YoUWlMMychKlFMu8-99" target="J-38YoUWlMMychKlFMu8-85">
          <mxGeometry relative="1" as="geometry">
            <Array as="points">
              <mxPoint x="460" y="371.5" />
              <mxPoint x="460" y="285.5" />
            </Array>
          </mxGeometry>
        </mxCell>
        <mxCell id="J-38YoUWlMMychKlFMu8-206" value="DC + Engine" style="edgeLabel;html=1;align=center;verticalAlign=middle;resizable=0;points=[];" vertex="1" connectable="0" parent="J-38YoUWlMMychKlFMu8-205">
          <mxGeometry x="0.0727" y="1" relative="1" as="geometry">
            <mxPoint y="-13" as="offset" />
          </mxGeometry>
        </mxCell>
        <mxCell id="J-38YoUWlMMychKlFMu8-207" value="Connect to Node for Process" style="edgeLabel;html=1;align=center;verticalAlign=middle;resizable=0;points=[];" vertex="1" connectable="0" parent="J-38YoUWlMMychKlFMu8-205">
          <mxGeometry x="0.7047" y="1" relative="1" as="geometry">
            <mxPoint x="-52" y="97" as="offset" />
          </mxGeometry>
        </mxCell>
        <mxCell id="J-38YoUWlMMychKlFMu8-208" value="&lt;b&gt;&lt;font style=&quot;font-size: 18px;&quot;&gt;Rest &amp;amp; Data Handling per Bot Process&lt;/font&gt;&lt;/b&gt;" style="text;html=1;align=center;verticalAlign=middle;resizable=0;points=[];autosize=1;strokeColor=none;fillColor=none;" vertex="1" parent="1">
          <mxGeometry x="30" y="121.5" width="350" height="40" as="geometry" />
        </mxCell>
      </root>
    </mxGraphModel>
  </diagram>
</mxfile>
